<svg xmlns="http://www.w3.org/2000/svg" width="153.541" height="43.724" viewBox="0 0 153.541 43.724" role="img" aria-label="株式会社日本触媒">
					<title>NIPPON SHOKUBAI CO., LTD.</title>
					<g id="logo" transform="translate(0 0)">
						<path d="M353.01,548.685a40.005,40.005,0,0,1,17.7-6.27L354.843,531l-16.01,11.3-.054,19.416v1.515a43.585,43.585,0,0,1,14.231-14.549" transform="translate(-217.164 -531)" fill="#fff100"></path>
						<path d="M353.726,558a45.327,45.327,0,0,0-13.691,14.224L355.2,582.954l16-11.264V551.616A40.254,40.254,0,0,0,353.726,558" transform="translate(-217.666 -539.231)" fill="#009b63"></path>
						<path d="M136.346,538.445v-.721h3.722s4.626,6.054,9.723,11.952v-8.408s.031-2.823-2.5-2.823v-.721h5.816v.721s-2.22-.22-2.22,2.854v12.047H149.73s-5.222-6.526-9.569-11.733v8.69a2.214,2.214,0,0,0,2.344,2.322v.721h-6.035v-.753s2.658.22,2.658-2.917v-9.381a3.27,3.27,0,0,0-2.783-1.85" transform="translate(-136.346 -533.684)"></path>
						<path d="M247.451,538.445v-.721h3.721s4.628,6.054,9.723,11.952v-8.408s.033-2.823-2.5-2.823v-.721h5.816v.721s-2.22-.22-2.22,2.854v12.047h-1.157s-5.222-6.526-9.567-11.733v8.69a2.214,2.214,0,0,0,2.344,2.322v.721h-6.035v-.753s2.658.22,2.658-2.917v-9.381a3.27,3.27,0,0,0-2.783-1.85" transform="translate(-180.703 -533.684)"></path>
						<path d="M166.1,538.423v-.753h6.6v.753s-2.158-.251-2.158,1.694v10.634s-.094,1.82,2.158,1.82v.753h-6.631V552.6s2.19-.062,2.19-1.819v-10.73s.156-1.631-2.158-1.631" transform="translate(-148.21 -533.663)"></path>
						<path d="M179.556,552.572v.784h6.879v-.784h-.688c-1.625,0-1.657-1.788-1.657-1.788V539.145a.608.608,0,0,1,.657-.69h.5c4.283,0,4.095,3.451,4.095,3.451a3.114,3.114,0,0,1-3.189,3.45,5.182,5.182,0,0,1-1.125-.156v.753a7.392,7.392,0,0,0,2.344.25c4.6-.377,4.565-4.2,4.565-4.2,0-4.424-5.19-4.329-5.19-4.329h-7.254v.753h.719c1.626,0,1.6,1.787,1.6,1.787v10.573a1.744,1.744,0,0,1-1.845,1.788Z" transform="translate(-153.572 -533.663)"></path>
						<path d="M200.426,552.572v.784h6.879v-.784h-.689c-1.626,0-1.657-1.788-1.657-1.788V539.145a.609.609,0,0,1,.658-.69h.5c4.283,0,4.1,3.451,4.1,3.451a3.114,3.114,0,0,1-3.19,3.45,5.184,5.184,0,0,1-1.125-.156v.753a7.4,7.4,0,0,0,2.346.25c4.6-.377,4.564-4.2,4.564-4.2,0-4.424-5.19-4.329-5.19-4.329h-7.255v.753h.721c1.626,0,1.594,1.787,1.594,1.787v10.573a1.744,1.744,0,0,1-1.846,1.788Z" transform="translate(-161.903 -533.663)"></path>
						<path d="M230.229,552.935h-.108c-5.28-.083-5.174-7.405-5.174-7.405.086-7.773,5.3-7.434,5.3-7.434s5.045-.31,5.152,7.434c0,0,.108,7.322-5.173,7.405m7.6-7.4c-.156-8.628-7.537-8.282-7.537-8.282s-7.627-.376-7.752,8.282c0,0-.157,8.157,7.566,8.251h.156c7.723-.094,7.567-8.251,7.567-8.251" transform="translate(-170.756 -533.494)"></path>
						<path d="M192.327,585.715h-.107c-5.28-.085-5.174-7.406-5.174-7.406.085-7.773,5.3-7.436,5.3-7.436s5.046-.309,5.153,7.436c0,0,.107,7.321-5.174,7.406m7.6-7.4c-.157-8.628-7.535-8.283-7.535-8.283s-7.628-.375-7.754,8.283c0,0-.157,8.155,7.567,8.251h.157c7.722-.1,7.565-8.251,7.565-8.251" transform="translate(-155.624 -546.581)"></path>
						<path d="M172.681,571.412l.615,0v-.753h-6.8v.753h.562s1.7.03,1.7,1.631v4.591h-7.34v-4.351s-.151-1.87,1.644-1.87l.513,0v-.753h-6.6v.753h.458s1.7.03,1.7,1.631v10.728a1.662,1.662,0,0,1-1.629,1.82h-.56v.721h6.663v-.753h-.377a1.774,1.774,0,0,1-1.814-1.819v-4.916h7.34v4.947a1.662,1.662,0,0,1-1.63,1.82h-.559v.721h6.662v-.753h-.378a1.774,1.774,0,0,1-1.814-1.819V573.1a1.528,1.528,0,0,1,1.644-1.692" transform="translate(-144.569 -546.833)"></path>
						<path d="M147.806,570.679v3.365h-.881s.2-3.636-4.065-3.636c0,0-3.692.034-3.692,2.515,0,0-.069,1.869,2.505,2.617,0,0,1.932.645,3.728,1.394a4.932,4.932,0,0,1,3.253,4.656s.473,4.861-6,4.861a9.675,9.675,0,0,1-5.352-1.632v-3.6h.947a4.447,4.447,0,0,0,4.642,4.215s3.761.171,3.761-3.162c0,0,.1-2.413-3.084-3.195,0,0-2.61-.884-3.76-1.427a4.413,4.413,0,0,1-2.575-4.011s-.2-4.215,5.691-4.215a9.76,9.76,0,0,1,4.879,1.257" transform="translate(-136.701 -546.338)"></path>
						<path d="M223.816,584.567l-6.3-7.036a.324.324,0,0,1-.069-.408l4.811-4.589a3.236,3.236,0,0,1,2.1-1.054v-.815H218.7v.713c1.452-.032,1.424.952,1.424.952a1.548,1.548,0,0,1-.442,1.156c-2.237,2.278-4.506,4.453-4.506,4.453h-.187v-4.657s-.153-1.87,1.644-1.87h.616v-.753h-6.835v.753h.6s1.7.03,1.7,1.631v10.471a1.876,1.876,0,0,1-1.867,2.077h-.491v.722h6.933v-.753H216.8s-1.813.1-1.813-2.147v-4.963h.187l7.013,7.887h3.659v-.782a3.211,3.211,0,0,1-2.032-.986" transform="translate(-165.891 -546.833)"></path>
						<path d="M235.438,571.507h-.305v-.782h6.1v.749h-.645s-1.491,0-1.491,1.869v8.736s-.2,3.534,4.03,3.534c0,0,4.169.238,4.169-3.807v-8.056s-.067-2.277-2.1-2.277h-.508v-.749h5.521v.782a2.045,2.045,0,0,0-1.863,2.209v7.921s.541,5.269-5.76,5.269c0,0-5.793.305-5.793-5.031v-8.8s-.068-1.564-1.355-1.564" transform="translate(-175.785 -546.86)"></path>
						<path d="M267.96,585.636s-2.335.2-2.335-1.428V578.7h2.268s3.626-.068,3.626,3.535c0,0,.372,3.4-3.559,3.4m-2.335-13.8s0-.272.541-.272h1.355s3.557-.067,3.557,3.059a3.019,3.019,0,0,1-3.117,3.229h-2.335Zm8.435,10.334c0-3.093-3.694-3.875-3.694-3.875-.169-.068-.033-.238-.033-.238,3.353-1.087,3.151-3.671,3.151-3.671,0-3.57-4.641-3.6-4.641-3.6h-7.319v.748h.3a1.478,1.478,0,0,1,1.492,1.427V584.14c0,1.563-1.73,1.5-1.73,1.5h-.406v.781h7.725c5.285,0,5.15-4.249,5.15-4.249" transform="translate(-186.186 -546.882)"></path>
						<path d="M286.73,578.894l2.029-5.778c.2-.612.372-.068.372-.068l2.1,5.846Zm16.189,6.662c-1.8,0-1.659-1.972-1.659-1.972V573.116c0-1.768,2.065-1.632,2.065-1.632V570.7h-6.47v.714c2.236,0,2.1,1.632,2.1,1.632v10.4c0,2.414-1.593,2.141-1.593,2.141-1.423,0-2-2.074-2-2.074L290.589,570.5h-2.778l.44.952-4.372,11.931c-.778,2.209-2,2.142-2,2.142v.816h5.083v-.782c-2.067,0-1.865-1.734-1.865-1.734a3.622,3.622,0,0,1,.305-1.155l.955-2.72h5.246l.914,2.55a5.031,5.031,0,0,1,.339,1.632,1.434,1.434,0,0,1-1.559,1.427h-.372v.748h12.433v-.748Z" transform="translate(-194.449 -546.769)"></path>
					</g>
				</svg>